<svg width="144" height="177" viewBox="0 0 144 177" fill="none" xmlns="http://www.w3.org/2000/svg">
<path d="M123.391 8.31621H110.968C108.512 8.31621 106.297 7.11241 104.564 5.33078C101.819 2.48981 96.0409 1.76753 91.7072 2.77873C84.7733 4.41589 79.7174 8.2199 79.7174 14.2389C79.7174 20.2579 83.7621 25.2176 90.8405 25.2176C95.9927 25.2176 101.723 19.969 104.467 14.7686C105.96 11.9276 108.994 10.1941 112.22 10.1941H123.343C132.636 10.1941 140.196 17.4651 140.196 26.4214V118.873C140.196 127.83 132.636 135.1 123.343 135.1H107.597C99.9894 135.1 92.6221 137.701 86.6994 142.468C82.125 146.175 78.4173 150.798 76.9246 154.361C75.1429 158.743 74.0836 163.029 72.8798 165.87C72.6872 166.351 72.3983 167.025 72.1093 167.748C72.1093 167.603 72.1093 167.507 72.1093 167.362C71.8204 166.688 71.5315 166.014 71.3389 165.484C70.1351 162.692 69.1239 158.358 67.2942 153.976C65.8496 150.461 62.0937 145.79 57.5193 142.083C51.5966 137.315 44.2293 134.715 36.6213 134.715H20.8756C11.5823 134.715 4.02239 127.444 4.02239 118.488V26.0843C4.02239 17.128 11.5823 9.85707 20.8756 9.85707H31.9987C35.2249 9.85707 38.2585 11.5905 39.7512 14.4315C42.4958 19.6319 48.2259 24.8805 53.3782 24.8805C60.5047 24.8805 64.5013 19.969 64.5013 13.9018C64.5013 7.83469 59.3972 4.03068 52.5115 2.44166C48.1296 1.43047 42.3995 2.1046 39.6549 4.99372C37.9696 6.77534 35.7546 7.97914 33.2507 7.97914H20.8274C10.4266 7.97914 2 16.1168 2 26.1325V118.584C2 128.6 10.4748 136.738 20.8274 136.738L37.1028 136.978C39.6067 136.93 42.3514 137.556 44.8071 138.134C46.7814 138.616 48.4667 139.001 50.6817 140.349C55.8821 143.527 62.7679 150.076 65.2236 154.458C66.7645 157.202 68.1127 163.414 69.3647 166.255C70.087 167.94 71.6278 174.296 71.8204 174.97C71.8686 175.259 72.1093 175.115 72.1575 174.585C72.2538 174.152 73.891 168.277 74.6133 166.64C75.8171 163.751 77.2135 157.539 78.7543 154.843C81.2101 150.413 88.0958 143.864 93.2962 140.734C95.5112 139.386 97.1965 139.001 99.1708 138.519C101.627 137.941 104.371 137.315 106.875 137.364L123.15 137.123C133.551 137.123 141.978 128.985 141.978 118.97V26.4214C141.978 16.4057 133.503 8.26806 123.15 8.26806L123.391 8.31621ZM90.4553 22.3766C88.0958 22.3766 86.1697 21.7025 86.1697 20.8357C86.1697 19.969 88.0958 19.2949 90.4553 19.2949C92.8147 19.2949 94.7408 19.969 94.7408 20.8357C94.7408 21.7025 92.8147 22.3766 90.4553 22.3766ZM54.0042 18.9578C56.3636 18.9578 58.2897 19.6319 58.2897 20.4987C58.2897 21.3654 56.3636 22.0395 54.0042 22.0395C51.6447 22.0395 49.7187 21.3654 49.7187 20.4987C49.7187 19.6319 51.6447 18.9578 54.0042 18.9578Z" fill="#199DFC" stroke="#199DFC" stroke-width="3"/>
<path d="M87.0365 41.2032V107.46" stroke="#FDCC4D" stroke-width="4" stroke-miterlimit="10" stroke-linecap="round"/>
<path d="M101.338 55.2633V93.4479" stroke="#FDCC4D" stroke-width="4" stroke-miterlimit="10" stroke-linecap="round"/>
<path d="M72.35 47.3187V101.393" stroke="#FDCC4D" stroke-width="4" stroke-miterlimit="10" stroke-linecap="round"/>
<path d="M116.217 65.6168V83.096" stroke="#FDCC4D" stroke-width="4" stroke-miterlimit="10" stroke-linecap="round"/>
<path d="M57.3748 41.2032V107.46" stroke="#FDCC4D" stroke-width="4" stroke-miterlimit="10" stroke-linecap="round"/>
<path d="M43.0736 55.2633V93.4479" stroke="#FDCC4D" stroke-width="4" stroke-miterlimit="10" stroke-linecap="round"/>
<path d="M28.1947 65.6168V83.096" stroke="#FDCC4D" stroke-width="4" stroke-miterlimit="10" stroke-linecap="round"/>
</svg>
